<mxfile host="65bd71144e">
    <diagram id="_PDcA7vDa4OgmIwlEcHP" name="Page-1">
        <mxGraphModel dx="526" dy="1725" grid="1" gridSize="10" guides="1" tooltips="1" connect="1" arrows="1" fold="1" page="1" pageScale="1" pageWidth="827" pageHeight="1169" math="0" shadow="0">
            <root>
                <mxCell id="0"/>
                <mxCell id="1" parent="0"/>
                <mxCell id="5" style="edgeStyle=orthogonalEdgeStyle;html=1;entryX=0.855;entryY=0;entryDx=0;entryDy=4.35;entryPerimeter=0;rounded=0;startArrow=classic;startFill=1;endArrow=none;endFill=0;dashed=1;" parent="1" source="2" target="4" edge="1">
                    <mxGeometry relative="1" as="geometry">
                        <Array as="points">
                            <mxPoint x="370" y="590"/>
                            <mxPoint x="360" y="590"/>
                            <mxPoint x="360" y="611"/>
                        </Array>
                    </mxGeometry>
                </mxCell>
                <mxCell id="11" style="edgeStyle=orthogonalEdgeStyle;rounded=0;html=1;exitX=0.95;exitY=0.998;exitDx=0;exitDy=0;entryX=0.855;entryY=1;entryDx=0;entryDy=-4.35;entryPerimeter=0;startArrow=none;startFill=0;endArrow=classic;endFill=1;exitPerimeter=0;dashed=1;" parent="1" source="2" target="9" edge="1">
                    <mxGeometry relative="1" as="geometry">
                        <Array as="points">
                            <mxPoint x="550" y="590"/>
                            <mxPoint x="560" y="590"/>
                            <mxPoint x="560" y="611"/>
                        </Array>
                    </mxGeometry>
                </mxCell>
                <mxCell id="2" value="Parent" style="whiteSpace=wrap;html=1;aspect=fixed;" parent="1" vertex="1">
                    <mxGeometry x="360" y="370" width="200" height="200" as="geometry"/>
                </mxCell>
                <mxCell id="13" style="edgeStyle=orthogonalEdgeStyle;rounded=0;html=1;exitX=0.951;exitY=-0.002;exitDx=0;exitDy=0;entryX=0.145;entryY=1;entryDx=0;entryDy=-4.35;entryPerimeter=0;startArrow=none;startFill=0;endArrow=classic;endFill=1;exitPerimeter=0;fillColor=#60a917;strokeColor=#2D7600;strokeWidth=2;" parent="1" source="3" target="9" edge="1">
                    <mxGeometry relative="1" as="geometry">
                        <Array as="points">
                            <mxPoint x="550" y="670"/>
                            <mxPoint x="560" y="670"/>
                            <mxPoint x="560" y="641"/>
                        </Array>
                    </mxGeometry>
                </mxCell>
                <mxCell id="3" value="Child 1" style="rounded=0;whiteSpace=wrap;html=1;" parent="1" vertex="1">
                    <mxGeometry x="360" y="690" width="200" height="60" as="geometry"/>
                </mxCell>
                <mxCell id="6" style="edgeStyle=orthogonalEdgeStyle;rounded=0;html=1;exitX=0.855;exitY=1;exitDx=0;exitDy=-4.35;exitPerimeter=0;startArrow=classic;startFill=1;endArrow=none;endFill=0;fillColor=#0050ef;strokeColor=#001DBC;strokeWidth=2;" parent="1" source="4" target="2" edge="1">
                    <mxGeometry relative="1" as="geometry">
                        <mxPoint x="450" y="571" as="targetPoint"/>
                        <Array as="points">
                            <mxPoint x="450" y="611"/>
                        </Array>
                    </mxGeometry>
                </mxCell>
                <mxCell id="7" style="edgeStyle=orthogonalEdgeStyle;rounded=0;html=1;exitX=0.145;exitY=0;exitDx=0;exitDy=4.35;exitPerimeter=0;entryX=0.051;entryY=0.005;entryDx=0;entryDy=0;entryPerimeter=0;startArrow=none;startFill=0;endArrow=classic;endFill=1;fillColor=#0050ef;strokeColor=#001DBC;strokeWidth=2;" parent="1" source="4" target="3" edge="1">
                    <mxGeometry relative="1" as="geometry">
                        <Array as="points">
                            <mxPoint x="360" y="641"/>
                            <mxPoint x="360" y="670"/>
                            <mxPoint x="370" y="670"/>
                        </Array>
                    </mxGeometry>
                </mxCell>
                <mxCell id="8" style="edgeStyle=orthogonalEdgeStyle;rounded=0;html=1;exitX=0.145;exitY=1;exitDx=0;exitDy=-4.35;exitPerimeter=0;startArrow=classic;startFill=1;endArrow=none;endFill=0;dashed=1;" parent="1" source="4" target="3" edge="1">
                    <mxGeometry relative="1" as="geometry">
                        <mxPoint x="450" y="691" as="targetPoint"/>
                        <Array as="points">
                            <mxPoint x="450" y="641"/>
                        </Array>
                    </mxGeometry>
                </mxCell>
                <mxCell id="10" style="edgeStyle=orthogonalEdgeStyle;rounded=0;html=1;exitX=0.855;exitY=0;exitDx=0;exitDy=4.35;exitPerimeter=0;startArrow=none;startFill=0;endArrow=classic;endFill=1;fillColor=#60a917;strokeColor=#2D7600;strokeWidth=2;" parent="1" source="9" target="2" edge="1">
                    <mxGeometry relative="1" as="geometry">
                        <Array as="points">
                            <mxPoint x="471" y="611"/>
                        </Array>
                    </mxGeometry>
                </mxCell>
                <mxCell id="12" style="edgeStyle=orthogonalEdgeStyle;rounded=0;html=1;exitX=0.145;exitY=0;exitDx=0;exitDy=4.35;exitPerimeter=0;entryX=0.55;entryY=0;entryDx=0;entryDy=0;entryPerimeter=0;startArrow=none;startFill=0;endArrow=classic;endFill=1;dashed=1;" parent="1" source="9" target="3" edge="1">
                    <mxGeometry relative="1" as="geometry">
                        <Array as="points">
                            <mxPoint x="470" y="641"/>
                        </Array>
                    </mxGeometry>
                </mxCell>
                <mxCell id="17" value="" style="group" parent="1" vertex="1" connectable="0">
                    <mxGeometry x="474.595" y="605.405" width="72.05999999999995" height="41.25" as="geometry"/>
                </mxCell>
                <mxCell id="9" value="" style="shape=cylinder3;whiteSpace=wrap;html=1;boundedLbl=1;backgroundOutline=1;size=15;rotation=-90;" parent="17" vertex="1">
                    <mxGeometry x="15.404999999999973" y="-15.404999999999973" width="41.25" height="72.06" as="geometry"/>
                </mxCell>
                <mxCell id="16" value="" style="shape=flexArrow;endArrow=classic;html=1;rounded=0;endWidth=12.173913043478262;endSize=5.200000000000001;fillColor=#60a917;strokeColor=#2D7600;" parent="17" edge="1">
                    <mxGeometry width="50" height="50" relative="1" as="geometry">
                        <mxPoint x="66.40499999999997" y="20.404999999999973" as="sourcePoint"/>
                        <mxPoint x="32.40499999999997" y="20.595000000000027" as="targetPoint"/>
                    </mxGeometry>
                </mxCell>
                <mxCell id="18" value="" style="group" parent="1" vertex="1" connectable="0">
                    <mxGeometry x="364.595" y="605.405" width="72.05999999999995" height="41.25" as="geometry"/>
                </mxCell>
                <mxCell id="4" value="" style="shape=cylinder3;whiteSpace=wrap;html=1;boundedLbl=1;backgroundOutline=1;size=15;rotation=-90;" parent="18" vertex="1">
                    <mxGeometry x="15.404999999999973" y="-15.404999999999973" width="41.25" height="72.06" as="geometry"/>
                </mxCell>
                <mxCell id="14" value="" style="shape=flexArrow;endArrow=classic;html=1;rounded=0;endWidth=12.173913043478262;endSize=5.200000000000001;fillColor=#0050ef;strokeColor=#001DBC;" parent="18" edge="1">
                    <mxGeometry width="50" height="50" relative="1" as="geometry">
                        <mxPoint x="65.40499999999997" y="20.404999999999973" as="sourcePoint"/>
                        <mxPoint x="31.404999999999973" y="20.595000000000027" as="targetPoint"/>
                    </mxGeometry>
                </mxCell>
                <mxCell id="19" style="edgeStyle=orthogonalEdgeStyle;html=1;entryX=0.855;entryY=0;entryDx=0;entryDy=4.35;entryPerimeter=0;rounded=0;startArrow=classic;startFill=1;endArrow=none;endFill=0;strokeWidth=1;" parent="1" source="21" target="33" edge="1">
                    <mxGeometry relative="1" as="geometry">
                        <Array as="points">
                            <mxPoint x="370" y="130"/>
                            <mxPoint x="360" y="130"/>
                            <mxPoint x="360" y="151"/>
                        </Array>
                    </mxGeometry>
                </mxCell>
                <mxCell id="20" style="edgeStyle=orthogonalEdgeStyle;rounded=0;html=1;exitX=0.95;exitY=0.998;exitDx=0;exitDy=0;entryX=0.855;entryY=1;entryDx=0;entryDy=-4.35;entryPerimeter=0;startArrow=none;startFill=0;endArrow=classic;endFill=1;exitPerimeter=0;strokeWidth=1;" parent="1" source="21" target="30" edge="1">
                    <mxGeometry relative="1" as="geometry">
                        <Array as="points">
                            <mxPoint x="550" y="130"/>
                            <mxPoint x="560" y="130"/>
                            <mxPoint x="560" y="151"/>
                        </Array>
                    </mxGeometry>
                </mxCell>
                <mxCell id="21" value="Parent" style="whiteSpace=wrap;html=1;aspect=fixed;" parent="1" vertex="1">
                    <mxGeometry x="360" y="-90" width="200" height="200" as="geometry"/>
                </mxCell>
                <mxCell id="22" style="edgeStyle=orthogonalEdgeStyle;rounded=0;html=1;exitX=0.951;exitY=-0.002;exitDx=0;exitDy=0;entryX=0.145;entryY=1;entryDx=0;entryDy=-4.35;entryPerimeter=0;startArrow=none;startFill=0;endArrow=classic;endFill=1;exitPerimeter=0;strokeWidth=1;" parent="1" source="23" target="30" edge="1">
                    <mxGeometry relative="1" as="geometry">
                        <Array as="points">
                            <mxPoint x="550" y="210"/>
                            <mxPoint x="560" y="210"/>
                            <mxPoint x="560" y="181"/>
                        </Array>
                    </mxGeometry>
                </mxCell>
                <mxCell id="23" value="Child 1" style="rounded=0;whiteSpace=wrap;html=1;" parent="1" vertex="1">
                    <mxGeometry x="360" y="230" width="200" height="60" as="geometry"/>
                </mxCell>
                <mxCell id="24" style="edgeStyle=orthogonalEdgeStyle;rounded=0;html=1;exitX=0.855;exitY=1;exitDx=0;exitDy=-4.35;exitPerimeter=0;startArrow=classic;startFill=1;endArrow=none;endFill=0;strokeWidth=1;" parent="1" source="33" target="21" edge="1">
                    <mxGeometry relative="1" as="geometry">
                        <mxPoint x="450" y="111" as="targetPoint"/>
                        <Array as="points">
                            <mxPoint x="450" y="151"/>
                        </Array>
                    </mxGeometry>
                </mxCell>
                <mxCell id="25" style="edgeStyle=orthogonalEdgeStyle;rounded=0;html=1;exitX=0.145;exitY=0;exitDx=0;exitDy=4.35;exitPerimeter=0;entryX=0.051;entryY=0.005;entryDx=0;entryDy=0;entryPerimeter=0;startArrow=none;startFill=0;endArrow=classic;endFill=1;strokeWidth=1;" parent="1" source="33" target="23" edge="1">
                    <mxGeometry relative="1" as="geometry">
                        <Array as="points">
                            <mxPoint x="360" y="181"/>
                            <mxPoint x="360" y="210"/>
                            <mxPoint x="370" y="210"/>
                        </Array>
                    </mxGeometry>
                </mxCell>
                <mxCell id="26" style="edgeStyle=orthogonalEdgeStyle;rounded=0;html=1;exitX=0.145;exitY=1;exitDx=0;exitDy=-4.35;exitPerimeter=0;startArrow=classic;startFill=1;endArrow=none;endFill=0;strokeWidth=1;" parent="1" source="33" target="23" edge="1">
                    <mxGeometry relative="1" as="geometry">
                        <mxPoint x="450" y="231" as="targetPoint"/>
                        <Array as="points">
                            <mxPoint x="450" y="181"/>
                        </Array>
                    </mxGeometry>
                </mxCell>
                <mxCell id="27" style="edgeStyle=orthogonalEdgeStyle;rounded=0;html=1;exitX=0.855;exitY=0;exitDx=0;exitDy=4.35;exitPerimeter=0;startArrow=none;startFill=0;endArrow=classic;endFill=1;strokeWidth=1;" parent="1" source="30" target="21" edge="1">
                    <mxGeometry relative="1" as="geometry">
                        <Array as="points">
                            <mxPoint x="471" y="151"/>
                        </Array>
                    </mxGeometry>
                </mxCell>
                <mxCell id="28" style="edgeStyle=orthogonalEdgeStyle;rounded=0;html=1;exitX=0.145;exitY=0;exitDx=0;exitDy=4.35;exitPerimeter=0;entryX=0.55;entryY=0;entryDx=0;entryDy=0;entryPerimeter=0;startArrow=none;startFill=0;endArrow=classic;endFill=1;strokeWidth=1;" parent="1" source="30" target="23" edge="1">
                    <mxGeometry relative="1" as="geometry">
                        <Array as="points">
                            <mxPoint x="470" y="181"/>
                        </Array>
                    </mxGeometry>
                </mxCell>
                <mxCell id="29" value="" style="group" parent="1" vertex="1" connectable="0">
                    <mxGeometry x="474.595" y="145.40499999999997" width="72.05999999999995" height="41.25" as="geometry"/>
                </mxCell>
                <mxCell id="30" value="" style="shape=cylinder3;whiteSpace=wrap;html=1;boundedLbl=1;backgroundOutline=1;size=15;rotation=-90;" parent="29" vertex="1">
                    <mxGeometry x="15.404999999999973" y="-15.404999999999973" width="41.25" height="72.06" as="geometry"/>
                </mxCell>
                <mxCell id="31" value="" style="shape=flexArrow;endArrow=classic;html=1;rounded=0;endWidth=12.173913043478262;endSize=5.200000000000001;" parent="29" edge="1">
                    <mxGeometry width="50" height="50" relative="1" as="geometry">
                        <mxPoint x="66.40499999999997" y="20.404999999999973" as="sourcePoint"/>
                        <mxPoint x="32.40499999999997" y="20.595000000000027" as="targetPoint"/>
                    </mxGeometry>
                </mxCell>
                <mxCell id="32" value="" style="group" parent="1" vertex="1" connectable="0">
                    <mxGeometry x="364.595" y="145.40499999999997" width="72.05999999999995" height="41.25" as="geometry"/>
                </mxCell>
                <mxCell id="33" value="" style="shape=cylinder3;whiteSpace=wrap;html=1;boundedLbl=1;backgroundOutline=1;size=15;rotation=-90;" parent="32" vertex="1">
                    <mxGeometry x="15.404999999999973" y="-15.404999999999973" width="41.25" height="72.06" as="geometry"/>
                </mxCell>
                <mxCell id="34" value="" style="shape=flexArrow;endArrow=classic;html=1;rounded=0;endWidth=12.173913043478262;endSize=5.200000000000001;" parent="32" edge="1">
                    <mxGeometry width="50" height="50" relative="1" as="geometry">
                        <mxPoint x="65.40499999999997" y="20.404999999999973" as="sourcePoint"/>
                        <mxPoint x="31.404999999999973" y="20.595000000000027" as="targetPoint"/>
                    </mxGeometry>
                </mxCell>
                <mxCell id="36" value="fd[0][0]" style="text;html=1;strokeColor=none;fillColor=none;align=center;verticalAlign=middle;whiteSpace=wrap;rounded=0;" parent="1" vertex="1">
                    <mxGeometry x="360" y="550" width="40" height="20" as="geometry"/>
                </mxCell>
                <mxCell id="37" value="fd[0][1]" style="text;html=1;strokeColor=#001DBC;fillColor=#0050ef;align=center;verticalAlign=middle;whiteSpace=wrap;rounded=0;fontColor=#ffffff;" parent="1" vertex="1">
                    <mxGeometry x="414" y="550" width="40" height="20" as="geometry"/>
                </mxCell>
                <mxCell id="38" value="fd[0][0]" style="text;html=1;strokeColor=#001DBC;fillColor=#0050ef;align=center;verticalAlign=middle;whiteSpace=wrap;rounded=0;fontColor=#ffffff;" parent="1" vertex="1">
                    <mxGeometry x="360" y="690" width="40" height="20" as="geometry"/>
                </mxCell>
                <mxCell id="39" value="fd[0][1]" style="text;html=1;strokeColor=none;fillColor=none;align=center;verticalAlign=middle;whiteSpace=wrap;rounded=0;" parent="1" vertex="1">
                    <mxGeometry x="414" y="690" width="40" height="20" as="geometry"/>
                </mxCell>
                <mxCell id="42" value="fd[1][0]" style="text;html=1;strokeColor=#2D7600;fillColor=#60a917;align=center;verticalAlign=middle;whiteSpace=wrap;rounded=0;fontColor=#ffffff;" parent="1" vertex="1">
                    <mxGeometry x="460" y="550" width="40" height="20" as="geometry"/>
                </mxCell>
                <mxCell id="43" value="fd[1][1]" style="text;html=1;strokeColor=none;fillColor=none;align=center;verticalAlign=middle;whiteSpace=wrap;rounded=0;" parent="1" vertex="1">
                    <mxGeometry x="520" y="550" width="40" height="20" as="geometry"/>
                </mxCell>
                <mxCell id="44" value="fd[1][0]" style="text;html=1;strokeColor=none;fillColor=none;align=center;verticalAlign=middle;whiteSpace=wrap;rounded=0;" parent="1" vertex="1">
                    <mxGeometry x="460" y="690" width="40" height="20" as="geometry"/>
                </mxCell>
                <mxCell id="45" value="fd[1][1]" style="text;html=1;strokeColor=#2D7600;fillColor=#60a917;align=center;verticalAlign=middle;whiteSpace=wrap;rounded=0;fontColor=#ffffff;" parent="1" vertex="1">
                    <mxGeometry x="520" y="690" width="40" height="20" as="geometry"/>
                </mxCell>
                <mxCell id="46" value="" style="verticalLabelPosition=bottom;verticalAlign=top;html=1;shape=mxgraph.basic.no_symbol;fillColor=#f8cecc;strokeColor=#b85450;" parent="1" vertex="1">
                    <mxGeometry x="370" y="530" width="20" height="20" as="geometry"/>
                </mxCell>
                <mxCell id="47" value="" style="verticalLabelPosition=bottom;verticalAlign=top;html=1;shape=mxgraph.basic.no_symbol;fillColor=#f8cecc;strokeColor=#b85450;" parent="1" vertex="1">
                    <mxGeometry x="414" y="710" width="20" height="20" as="geometry"/>
                </mxCell>
                <mxCell id="49" value="" style="verticalLabelPosition=bottom;verticalAlign=top;html=1;shape=mxgraph.basic.no_symbol;fillColor=#f8cecc;strokeColor=#b85450;" parent="1" vertex="1">
                    <mxGeometry x="480" y="710" width="20" height="20" as="geometry"/>
                </mxCell>
                <mxCell id="50" value="" style="verticalLabelPosition=bottom;verticalAlign=top;html=1;shape=mxgraph.basic.no_symbol;fillColor=#f8cecc;strokeColor=#b85450;" parent="1" vertex="1">
                    <mxGeometry x="530" y="530" width="20" height="20" as="geometry"/>
                </mxCell>
                <mxCell id="52" value="fd[0][0]" style="text;html=1;align=center;verticalAlign=middle;whiteSpace=wrap;rounded=0;" parent="1" vertex="1">
                    <mxGeometry x="360" y="90" width="40" height="20" as="geometry"/>
                </mxCell>
                <mxCell id="53" value="fd[0][1]" style="text;html=1;align=center;verticalAlign=middle;whiteSpace=wrap;rounded=0;" parent="1" vertex="1">
                    <mxGeometry x="414" y="90" width="40" height="20" as="geometry"/>
                </mxCell>
                <mxCell id="54" value="fd[1][0]" style="text;html=1;align=center;verticalAlign=middle;whiteSpace=wrap;rounded=0;" parent="1" vertex="1">
                    <mxGeometry x="460" y="90" width="40" height="20" as="geometry"/>
                </mxCell>
                <mxCell id="55" value="fd[1][1]" style="text;html=1;align=center;verticalAlign=middle;whiteSpace=wrap;rounded=0;" parent="1" vertex="1">
                    <mxGeometry x="520" y="90" width="40" height="20" as="geometry"/>
                </mxCell>
                <mxCell id="56" value="fd[0][0]" style="text;html=1;align=center;verticalAlign=middle;whiteSpace=wrap;rounded=0;" parent="1" vertex="1">
                    <mxGeometry x="360" y="230" width="40" height="20" as="geometry"/>
                </mxCell>
                <mxCell id="57" value="fd[0][1]" style="text;html=1;align=center;verticalAlign=middle;whiteSpace=wrap;rounded=0;" parent="1" vertex="1">
                    <mxGeometry x="414" y="230" width="40" height="20" as="geometry"/>
                </mxCell>
                <mxCell id="58" value="fd[1][0]" style="text;html=1;align=center;verticalAlign=middle;whiteSpace=wrap;rounded=0;" parent="1" vertex="1">
                    <mxGeometry x="460" y="230" width="40" height="20" as="geometry"/>
                </mxCell>
                <mxCell id="59" value="fd[1][1]" style="text;html=1;align=center;verticalAlign=middle;whiteSpace=wrap;rounded=0;" parent="1" vertex="1">
                    <mxGeometry x="520" y="230" width="40" height="20" as="geometry"/>
                </mxCell>
                <mxCell id="63" style="edgeStyle=orthogonalEdgeStyle;html=1;entryX=0.855;entryY=0;entryDx=0;entryDy=4.35;entryPerimeter=0;rounded=0;startArrow=classic;startFill=1;endArrow=none;endFill=0;dashed=1;" parent="1" source="65" target="77" edge="1">
                    <mxGeometry relative="1" as="geometry">
                        <Array as="points">
                            <mxPoint x="370" y="1220"/>
                            <mxPoint x="360" y="1220"/>
                            <mxPoint x="360" y="1241"/>
                        </Array>
                    </mxGeometry>
                </mxCell>
                <mxCell id="64" style="edgeStyle=orthogonalEdgeStyle;rounded=0;html=1;exitX=0.95;exitY=0.998;exitDx=0;exitDy=0;entryX=0.855;entryY=1;entryDx=0;entryDy=-4.35;entryPerimeter=0;startArrow=none;startFill=0;endArrow=classic;endFill=1;exitPerimeter=0;dashed=1;" parent="1" source="65" target="74" edge="1">
                    <mxGeometry relative="1" as="geometry">
                        <Array as="points">
                            <mxPoint x="550" y="1220"/>
                            <mxPoint x="560" y="1220"/>
                            <mxPoint x="560" y="1241"/>
                        </Array>
                    </mxGeometry>
                </mxCell>
                <mxCell id="65" value="Parent" style="whiteSpace=wrap;html=1;aspect=fixed;" parent="1" vertex="1">
                    <mxGeometry x="360" y="1000" width="200" height="200" as="geometry"/>
                </mxCell>
                <mxCell id="66" style="edgeStyle=orthogonalEdgeStyle;rounded=0;html=1;exitX=0.951;exitY=-0.002;exitDx=0;exitDy=0;entryX=0.145;entryY=1;entryDx=0;entryDy=-4.35;entryPerimeter=0;startArrow=none;startFill=0;endArrow=classic;endFill=1;exitPerimeter=0;fillColor=#60a917;strokeColor=#2D7600;strokeWidth=2;" parent="1" source="67" target="74" edge="1">
                    <mxGeometry relative="1" as="geometry">
                        <Array as="points">
                            <mxPoint x="550" y="1300"/>
                            <mxPoint x="560" y="1300"/>
                            <mxPoint x="560" y="1271"/>
                        </Array>
                    </mxGeometry>
                </mxCell>
                <mxCell id="67" value="Child n" style="rounded=0;whiteSpace=wrap;html=1;" parent="1" vertex="1">
                    <mxGeometry x="360" y="1320" width="200" height="60" as="geometry"/>
                </mxCell>
                <mxCell id="68" style="edgeStyle=orthogonalEdgeStyle;rounded=0;html=1;exitX=0.855;exitY=1;exitDx=0;exitDy=-4.35;exitPerimeter=0;startArrow=classic;startFill=1;endArrow=none;endFill=0;fillColor=#0050ef;strokeColor=#001DBC;strokeWidth=2;" parent="1" source="77" target="65" edge="1">
                    <mxGeometry relative="1" as="geometry">
                        <mxPoint x="450" y="1201" as="targetPoint"/>
                        <Array as="points">
                            <mxPoint x="450" y="1241"/>
                        </Array>
                    </mxGeometry>
                </mxCell>
                <mxCell id="69" style="edgeStyle=orthogonalEdgeStyle;rounded=0;html=1;exitX=0.145;exitY=0;exitDx=0;exitDy=4.35;exitPerimeter=0;entryX=0.051;entryY=0.005;entryDx=0;entryDy=0;entryPerimeter=0;startArrow=none;startFill=0;endArrow=classic;endFill=1;fillColor=#0050ef;strokeColor=#001DBC;strokeWidth=2;" parent="1" source="77" target="67" edge="1">
                    <mxGeometry relative="1" as="geometry">
                        <Array as="points">
                            <mxPoint x="360" y="1271"/>
                            <mxPoint x="360" y="1300"/>
                            <mxPoint x="370" y="1300"/>
                        </Array>
                    </mxGeometry>
                </mxCell>
                <mxCell id="70" style="edgeStyle=orthogonalEdgeStyle;rounded=0;html=1;exitX=0.145;exitY=1;exitDx=0;exitDy=-4.35;exitPerimeter=0;startArrow=classic;startFill=1;endArrow=none;endFill=0;dashed=1;" parent="1" source="77" target="67" edge="1">
                    <mxGeometry relative="1" as="geometry">
                        <mxPoint x="450" y="1321" as="targetPoint"/>
                        <Array as="points">
                            <mxPoint x="450" y="1271"/>
                        </Array>
                    </mxGeometry>
                </mxCell>
                <mxCell id="71" style="edgeStyle=orthogonalEdgeStyle;rounded=0;html=1;exitX=0.855;exitY=0;exitDx=0;exitDy=4.35;exitPerimeter=0;startArrow=none;startFill=0;endArrow=classic;endFill=1;fillColor=#60a917;strokeColor=#2D7600;strokeWidth=2;" parent="1" source="74" target="65" edge="1">
                    <mxGeometry relative="1" as="geometry">
                        <Array as="points">
                            <mxPoint x="471" y="1241"/>
                        </Array>
                    </mxGeometry>
                </mxCell>
                <mxCell id="72" style="edgeStyle=orthogonalEdgeStyle;rounded=0;html=1;exitX=0.145;exitY=0;exitDx=0;exitDy=4.35;exitPerimeter=0;entryX=0.55;entryY=0;entryDx=0;entryDy=0;entryPerimeter=0;startArrow=none;startFill=0;endArrow=classic;endFill=1;dashed=1;" parent="1" source="74" target="67" edge="1">
                    <mxGeometry relative="1" as="geometry">
                        <Array as="points">
                            <mxPoint x="470" y="1271"/>
                        </Array>
                    </mxGeometry>
                </mxCell>
                <mxCell id="73" value="" style="group" parent="1" vertex="1" connectable="0">
                    <mxGeometry x="474.595" y="1235.405" width="72.05999999999995" height="41.25" as="geometry"/>
                </mxCell>
                <mxCell id="74" value="" style="shape=cylinder3;whiteSpace=wrap;html=1;boundedLbl=1;backgroundOutline=1;size=15;rotation=-90;" parent="73" vertex="1">
                    <mxGeometry x="15.404999999999973" y="-15.404999999999973" width="41.25" height="72.06" as="geometry"/>
                </mxCell>
                <mxCell id="75" value="" style="shape=flexArrow;endArrow=classic;html=1;rounded=0;endWidth=12.173913043478262;endSize=5.200000000000001;fillColor=#60a917;strokeColor=#2D7600;" parent="73" edge="1">
                    <mxGeometry width="50" height="50" relative="1" as="geometry">
                        <mxPoint x="66.40499999999997" y="20.404999999999973" as="sourcePoint"/>
                        <mxPoint x="32.40499999999997" y="20.595000000000027" as="targetPoint"/>
                    </mxGeometry>
                </mxCell>
                <mxCell id="76" value="" style="group" parent="1" vertex="1" connectable="0">
                    <mxGeometry x="364.595" y="1235.405" width="72.05999999999995" height="41.25" as="geometry"/>
                </mxCell>
                <mxCell id="77" value="" style="shape=cylinder3;whiteSpace=wrap;html=1;boundedLbl=1;backgroundOutline=1;size=15;rotation=-90;" parent="76" vertex="1">
                    <mxGeometry x="15.404999999999973" y="-15.404999999999973" width="41.25" height="72.06" as="geometry"/>
                </mxCell>
                <mxCell id="78" value="" style="shape=flexArrow;endArrow=classic;html=1;rounded=0;endWidth=12.173913043478262;endSize=5.200000000000001;fillColor=#0050ef;strokeColor=#001DBC;" parent="76" edge="1">
                    <mxGeometry width="50" height="50" relative="1" as="geometry">
                        <mxPoint x="65.40499999999997" y="20.404999999999973" as="sourcePoint"/>
                        <mxPoint x="31.404999999999973" y="20.595000000000027" as="targetPoint"/>
                    </mxGeometry>
                </mxCell>
                <mxCell id="79" value="&lt;font style=&quot;font-size: 10px;&quot;&gt;fd[2n][0]&lt;/font&gt;" style="text;html=1;strokeColor=none;fillColor=none;align=center;verticalAlign=middle;whiteSpace=wrap;rounded=0;" parent="1" vertex="1">
                    <mxGeometry x="360" y="1180" width="45" height="20" as="geometry"/>
                </mxCell>
                <mxCell id="80" value="&lt;font style=&quot;font-size: 10px;&quot;&gt;fd[2n][1]&lt;/font&gt;" style="text;html=1;strokeColor=#001DBC;fillColor=#0050ef;align=center;verticalAlign=middle;whiteSpace=wrap;rounded=0;fontColor=#ffffff;" parent="1" vertex="1">
                    <mxGeometry x="414" y="1180" width="40" height="20" as="geometry"/>
                </mxCell>
                <mxCell id="81" value="&lt;font style=&quot;font-size: 10px;&quot;&gt;fd[2n][0]&lt;/font&gt;" style="text;html=1;strokeColor=#001DBC;fillColor=#0050ef;align=center;verticalAlign=middle;whiteSpace=wrap;rounded=0;fontColor=#ffffff;" parent="1" vertex="1">
                    <mxGeometry x="360" y="1320" width="40" height="20" as="geometry"/>
                </mxCell>
                <mxCell id="82" value="&lt;font style=&quot;font-size: 10px;&quot;&gt;fd[2n][1]&lt;/font&gt;" style="text;html=1;strokeColor=none;fillColor=none;align=center;verticalAlign=middle;whiteSpace=wrap;rounded=0;" parent="1" vertex="1">
                    <mxGeometry x="414" y="1320" width="40" height="20" as="geometry"/>
                </mxCell>
                <mxCell id="83" value="&lt;font style=&quot;font-size: 10px;&quot;&gt;fd[2n+1][0]&lt;/font&gt;" style="text;html=1;strokeColor=#2D7600;fillColor=#60a917;align=center;verticalAlign=middle;whiteSpace=wrap;rounded=0;fontColor=#ffffff;" parent="1" vertex="1">
                    <mxGeometry x="460" y="1180" width="50" height="20" as="geometry"/>
                </mxCell>
                <mxCell id="84" value="&lt;font style=&quot;font-size: 10px;&quot;&gt;fd[2n+1][1]&lt;/font&gt;" style="text;html=1;strokeColor=none;fillColor=none;align=center;verticalAlign=middle;whiteSpace=wrap;rounded=0;" parent="1" vertex="1">
                    <mxGeometry x="510" y="1180" width="50" height="20" as="geometry"/>
                </mxCell>
                <mxCell id="85" value="&lt;font style=&quot;font-size: 10px;&quot;&gt;fd[2n+1][0]&lt;/font&gt;" style="text;html=1;strokeColor=none;fillColor=none;align=center;verticalAlign=middle;whiteSpace=wrap;rounded=0;" parent="1" vertex="1">
                    <mxGeometry x="460" y="1320" width="50" height="20" as="geometry"/>
                </mxCell>
                <mxCell id="86" value="&lt;font style=&quot;font-size: 10px;&quot;&gt;fd[2n+1][1]&lt;/font&gt;" style="text;html=1;strokeColor=#2D7600;fillColor=#60a917;align=center;verticalAlign=middle;whiteSpace=wrap;rounded=0;fontColor=#ffffff;" parent="1" vertex="1">
                    <mxGeometry x="510" y="1320" width="50" height="20" as="geometry"/>
                </mxCell>
                <mxCell id="87" value="" style="verticalLabelPosition=bottom;verticalAlign=top;html=1;shape=mxgraph.basic.no_symbol;fillColor=#f8cecc;strokeColor=#b85450;opacity=50;" parent="1" vertex="1">
                    <mxGeometry x="372.05" y="1180" width="20" height="20" as="geometry"/>
                </mxCell>
                <mxCell id="88" value="" style="verticalLabelPosition=bottom;verticalAlign=top;html=1;shape=mxgraph.basic.no_symbol;fillColor=#f8cecc;strokeColor=#b85450;opacity=50;" parent="1" vertex="1">
                    <mxGeometry x="424" y="1320" width="20" height="20" as="geometry"/>
                </mxCell>
                <mxCell id="89" value="" style="verticalLabelPosition=bottom;verticalAlign=top;html=1;shape=mxgraph.basic.no_symbol;fillColor=#f8cecc;strokeColor=#b85450;opacity=50;" parent="1" vertex="1">
                    <mxGeometry x="475" y="1320" width="20" height="20" as="geometry"/>
                </mxCell>
                <mxCell id="90" value="" style="verticalLabelPosition=bottom;verticalAlign=top;html=1;shape=mxgraph.basic.no_symbol;fillColor=#f8cecc;strokeColor=#b85450;opacity=50;" parent="1" vertex="1">
                    <mxGeometry x="525" y="1180" width="20" height="20" as="geometry"/>
                </mxCell>
                <mxCell id="91" value="Child ..." style="rounded=0;whiteSpace=wrap;html=1;rotation=-90;" parent="1" vertex="1">
                    <mxGeometry x="110" y="1070" width="200" height="60" as="geometry"/>
                </mxCell>
                <mxCell id="92" value="Child ..." style="rounded=0;whiteSpace=wrap;html=1;rotation=0;" parent="1" vertex="1">
                    <mxGeometry x="360" y="820" width="200" height="60" as="geometry"/>
                </mxCell>
                <mxCell id="93" value="Child ..." style="rounded=0;whiteSpace=wrap;html=1;rotation=90;" parent="1" vertex="1">
                    <mxGeometry x="610" y="1070" width="200" height="60" as="geometry"/>
                </mxCell>
                <mxCell id="107" value="" style="group;rotation=90;" parent="1" vertex="1" connectable="0">
                    <mxGeometry x="209.99500000000003" y="1079.995" width="182.05999999999992" height="41.25" as="geometry"/>
                </mxCell>
                <mxCell id="101" value="" style="group;rotation=-180;" parent="107" vertex="1" connectable="0">
                    <mxGeometry x="55" y="55" width="72.05999999999995" height="41.25" as="geometry"/>
                </mxCell>
                <mxCell id="102" value="" style="shape=cylinder3;whiteSpace=wrap;html=1;boundedLbl=1;backgroundOutline=1;size=15;rotation=-270;" parent="101" vertex="1">
                    <mxGeometry x="15" y="-16" width="41.25" height="72.06" as="geometry"/>
                </mxCell>
                <mxCell id="103" value="" style="shape=flexArrow;endArrow=classic;html=1;rounded=0;endWidth=12.173913043478262;endSize=5.200000000000001;fillColor=#60a917;strokeColor=#2D7600;" parent="101" edge="1">
                    <mxGeometry width="50" height="50" relative="1" as="geometry">
                        <mxPoint x="6" y="21" as="sourcePoint"/>
                        <mxPoint x="40" y="21" as="targetPoint"/>
                    </mxGeometry>
                </mxCell>
                <mxCell id="104" value="" style="group;rotation=0;" parent="107" vertex="1" connectable="0">
                    <mxGeometry x="55" y="-55" width="72.05999999999995" height="41.25" as="geometry"/>
                </mxCell>
                <mxCell id="105" value="" style="shape=cylinder3;whiteSpace=wrap;html=1;boundedLbl=1;backgroundOutline=1;size=15;rotation=-90;" parent="104" vertex="1">
                    <mxGeometry x="16" y="-15" width="41.25" height="72.06" as="geometry"/>
                </mxCell>
                <mxCell id="106" value="" style="shape=flexArrow;endArrow=classic;html=1;rounded=0;endWidth=12.173913043478262;endSize=5.200000000000001;fillColor=#0050ef;strokeColor=#001DBC;" parent="104" edge="1">
                    <mxGeometry width="50" height="50" relative="1" as="geometry">
                        <mxPoint x="65" y="21" as="sourcePoint"/>
                        <mxPoint x="31" y="21" as="targetPoint"/>
                    </mxGeometry>
                </mxCell>
                <mxCell id="108" value="" style="group;rotation=-180;" parent="1" vertex="1" connectable="0">
                    <mxGeometry x="370.005" y="919.9949999999999" width="182.05999999999992" height="41.25" as="geometry"/>
                </mxCell>
                <mxCell id="109" value="" style="group;rotation=-90;" parent="108" vertex="1" connectable="0">
                    <mxGeometry width="72.05999999999995" height="41.25" as="geometry"/>
                </mxCell>
                <mxCell id="110" value="" style="shape=cylinder3;whiteSpace=wrap;html=1;boundedLbl=1;backgroundOutline=1;size=15;rotation=-180;" parent="109" vertex="1">
                    <mxGeometry x="16" y="-16" width="41.25" height="72.06" as="geometry"/>
                </mxCell>
                <mxCell id="111" value="" style="shape=flexArrow;endArrow=classic;html=1;rounded=0;endWidth=12.173913043478262;endSize=5.200000000000001;fillColor=#60a917;strokeColor=#2D7600;" parent="109" edge="1">
                    <mxGeometry width="50" height="50" relative="1" as="geometry">
                        <mxPoint x="36" y="-9" as="sourcePoint"/>
                        <mxPoint x="36" y="25" as="targetPoint"/>
                    </mxGeometry>
                </mxCell>
                <mxCell id="112" value="" style="group;rotation=-180;" parent="108" vertex="1" connectable="0">
                    <mxGeometry x="110" width="72.05999999999995" height="41.25" as="geometry"/>
                </mxCell>
                <mxCell id="122" value="" style="group;rotation=-90;" parent="112" vertex="1" connectable="0">
                    <mxGeometry x="-0.40500000000000824" y="-0.595000000000006" width="72.06" height="41.250000000000014" as="geometry"/>
                </mxCell>
                <mxCell id="113" value="" style="shape=cylinder3;whiteSpace=wrap;html=1;boundedLbl=1;backgroundOutline=1;size=15;rotation=-360;" parent="122" vertex="1">
                    <mxGeometry x="15" y="-15" width="41.25" height="72.06" as="geometry"/>
                </mxCell>
                <mxCell id="114" value="" style="shape=flexArrow;endArrow=classic;html=1;rounded=0;endWidth=12.173913043478262;endSize=5.200000000000001;fillColor=#0050ef;strokeColor=#001DBC;" parent="122" edge="1">
                    <mxGeometry width="50" height="50" relative="1" as="geometry">
                        <mxPoint x="37" y="49" as="sourcePoint"/>
                        <mxPoint x="37" y="15" as="targetPoint"/>
                    </mxGeometry>
                </mxCell>
                <mxCell id="115" value="" style="group;rotation=-90;" parent="1" vertex="1" connectable="0">
                    <mxGeometry x="529.995" y="1079.995" width="182.05999999999992" height="41.25" as="geometry"/>
                </mxCell>
                <mxCell id="116" value="" style="group;rotation=0;" parent="115" vertex="1" connectable="0">
                    <mxGeometry x="55" y="-55" width="72.05999999999995" height="41.25" as="geometry"/>
                </mxCell>
                <mxCell id="117" value="" style="shape=cylinder3;whiteSpace=wrap;html=1;boundedLbl=1;backgroundOutline=1;size=15;rotation=-90;" parent="116" vertex="1">
                    <mxGeometry x="16" y="-15" width="41.25" height="72.06" as="geometry"/>
                </mxCell>
                <mxCell id="118" value="" style="shape=flexArrow;endArrow=classic;html=1;rounded=0;endWidth=12.173913043478262;endSize=5.200000000000001;fillColor=#60a917;strokeColor=#2D7600;" parent="116" edge="1">
                    <mxGeometry width="50" height="50" relative="1" as="geometry">
                        <mxPoint x="66" y="21" as="sourcePoint"/>
                        <mxPoint x="32" y="21" as="targetPoint"/>
                    </mxGeometry>
                </mxCell>
                <mxCell id="119" value="" style="group;rotation=-180;" parent="115" vertex="1" connectable="0">
                    <mxGeometry x="55" y="55" width="72.05999999999995" height="41.25" as="geometry"/>
                </mxCell>
                <mxCell id="120" value="" style="shape=cylinder3;whiteSpace=wrap;html=1;boundedLbl=1;backgroundOutline=1;size=15;rotation=-270;" parent="119" vertex="1">
                    <mxGeometry x="15" y="-16" width="41.25" height="72.06" as="geometry"/>
                </mxCell>
                <mxCell id="121" value="" style="shape=flexArrow;endArrow=classic;html=1;rounded=0;endWidth=12.173913043478262;endSize=5.200000000000001;fillColor=#0050ef;strokeColor=#001DBC;" parent="119" edge="1">
                    <mxGeometry width="50" height="50" relative="1" as="geometry">
                        <mxPoint x="7" y="21" as="sourcePoint"/>
                        <mxPoint x="41" y="21" as="targetPoint"/>
                    </mxGeometry>
                </mxCell>
                <mxCell id="123" value="&lt;font style=&quot;font-size: 20px;&quot;&gt;fd[2k][2]&lt;br style=&quot;font-size: 20px;&quot;&gt;n: [0,k-1]&lt;br style=&quot;font-size: 20px;&quot;&gt;&lt;/font&gt;" style="text;html=1;align=center;verticalAlign=middle;resizable=0;points=[];autosize=1;strokeColor=none;fillColor=none;fontSize=20;" parent="1" vertex="1">
                    <mxGeometry x="414" y="1420" width="100" height="60" as="geometry"/>
                </mxCell>
                <mxCell id="124" style="edgeStyle=orthogonalEdgeStyle;html=1;entryX=0.855;entryY=0;entryDx=0;entryDy=4.35;entryPerimeter=0;rounded=0;startArrow=classic;startFill=1;endArrow=none;endFill=0;dashed=1;" parent="1" source="126" target="138" edge="1">
                    <mxGeometry relative="1" as="geometry">
                        <Array as="points">
                            <mxPoint x="300" y="1930"/>
                            <mxPoint x="290" y="1930"/>
                            <mxPoint x="290" y="1951"/>
                        </Array>
                    </mxGeometry>
                </mxCell>
                <mxCell id="125" style="edgeStyle=orthogonalEdgeStyle;rounded=0;html=1;exitX=0.95;exitY=0.998;exitDx=0;exitDy=0;entryX=0.855;entryY=1;entryDx=0;entryDy=-4.35;entryPerimeter=0;startArrow=none;startFill=0;endArrow=classic;endFill=1;exitPerimeter=0;dashed=1;" parent="1" source="126" target="135" edge="1">
                    <mxGeometry relative="1" as="geometry">
                        <Array as="points">
                            <mxPoint x="480" y="1930"/>
                            <mxPoint x="490" y="1930"/>
                            <mxPoint x="490" y="1951"/>
                        </Array>
                    </mxGeometry>
                </mxCell>
                <mxCell id="126" value="Input Module&lt;br&gt;mian()&lt;br&gt;parent" style="whiteSpace=wrap;html=1;" parent="1" vertex="1">
                    <mxGeometry x="290" y="1800" width="200" height="110" as="geometry"/>
                </mxCell>
                <mxCell id="127" style="edgeStyle=orthogonalEdgeStyle;rounded=0;html=1;exitX=0.951;exitY=-0.002;exitDx=0;exitDy=0;entryX=0.145;entryY=1;entryDx=0;entryDy=-4.35;entryPerimeter=0;startArrow=none;startFill=0;endArrow=classic;endFill=1;exitPerimeter=0;fillColor=#60a917;strokeColor=#2D7600;strokeWidth=2;" parent="1" source="128" target="135" edge="1">
                    <mxGeometry relative="1" as="geometry">
                        <Array as="points">
                            <mxPoint x="480" y="2010"/>
                            <mxPoint x="490" y="2010"/>
                            <mxPoint x="490" y="1981"/>
                        </Array>
                    </mxGeometry>
                </mxCell>
                <mxCell id="128" value="Scheduling Module" style="rounded=0;whiteSpace=wrap;html=1;" parent="1" vertex="1">
                    <mxGeometry x="290" y="2030" width="200" height="60" as="geometry"/>
                </mxCell>
                <mxCell id="129" style="edgeStyle=orthogonalEdgeStyle;rounded=0;html=1;exitX=0.855;exitY=1;exitDx=0;exitDy=-4.35;exitPerimeter=0;startArrow=classic;startFill=1;endArrow=none;endFill=0;fillColor=#0050ef;strokeColor=#001DBC;strokeWidth=2;" parent="1" source="138" target="126" edge="1">
                    <mxGeometry relative="1" as="geometry">
                        <mxPoint x="380" y="1911" as="targetPoint"/>
                        <Array as="points">
                            <mxPoint x="380" y="1951"/>
                        </Array>
                    </mxGeometry>
                </mxCell>
                <mxCell id="130" style="edgeStyle=orthogonalEdgeStyle;rounded=0;html=1;exitX=0.145;exitY=0;exitDx=0;exitDy=4.35;exitPerimeter=0;entryX=0.051;entryY=0.005;entryDx=0;entryDy=0;entryPerimeter=0;startArrow=none;startFill=0;endArrow=classic;endFill=1;fillColor=#0050ef;strokeColor=#001DBC;strokeWidth=2;" parent="1" source="138" target="128" edge="1">
                    <mxGeometry relative="1" as="geometry">
                        <Array as="points">
                            <mxPoint x="290" y="1981"/>
                            <mxPoint x="290" y="2010"/>
                            <mxPoint x="300" y="2010"/>
                        </Array>
                    </mxGeometry>
                </mxCell>
                <mxCell id="131" style="edgeStyle=orthogonalEdgeStyle;rounded=0;html=1;exitX=0.145;exitY=1;exitDx=0;exitDy=-4.35;exitPerimeter=0;startArrow=classic;startFill=1;endArrow=none;endFill=0;dashed=1;" parent="1" source="138" target="128" edge="1">
                    <mxGeometry relative="1" as="geometry">
                        <mxPoint x="380" y="2031" as="targetPoint"/>
                        <Array as="points">
                            <mxPoint x="380" y="1981"/>
                        </Array>
                    </mxGeometry>
                </mxCell>
                <mxCell id="132" style="edgeStyle=orthogonalEdgeStyle;rounded=0;html=1;exitX=0.855;exitY=0;exitDx=0;exitDy=4.35;exitPerimeter=0;startArrow=none;startFill=0;endArrow=classic;endFill=1;fillColor=#60a917;strokeColor=#2D7600;strokeWidth=2;" parent="1" source="135" target="126" edge="1">
                    <mxGeometry relative="1" as="geometry">
                        <Array as="points">
                            <mxPoint x="401" y="1951"/>
                        </Array>
                    </mxGeometry>
                </mxCell>
                <mxCell id="133" style="edgeStyle=orthogonalEdgeStyle;rounded=0;html=1;exitX=0.145;exitY=0;exitDx=0;exitDy=4.35;exitPerimeter=0;entryX=0.55;entryY=0;entryDx=0;entryDy=0;entryPerimeter=0;startArrow=none;startFill=0;endArrow=classic;endFill=1;dashed=1;" parent="1" source="135" target="128" edge="1">
                    <mxGeometry relative="1" as="geometry">
                        <Array as="points">
                            <mxPoint x="400" y="1981"/>
                        </Array>
                    </mxGeometry>
                </mxCell>
                <mxCell id="134" value="" style="group" parent="1" vertex="1" connectable="0">
                    <mxGeometry x="404.595" y="1945.405" width="72.05999999999995" height="41.25" as="geometry"/>
                </mxCell>
                <mxCell id="135" value="" style="shape=cylinder3;whiteSpace=wrap;html=1;boundedLbl=1;backgroundOutline=1;size=15;rotation=-90;" parent="134" vertex="1">
                    <mxGeometry x="15.404999999999973" y="-15.404999999999973" width="41.25" height="72.06" as="geometry"/>
                </mxCell>
                <mxCell id="136" value="" style="shape=flexArrow;endArrow=classic;html=1;rounded=0;endWidth=12.173913043478262;endSize=5.200000000000001;fillColor=#60a917;strokeColor=#2D7600;" parent="134" edge="1">
                    <mxGeometry width="50" height="50" relative="1" as="geometry">
                        <mxPoint x="66.40499999999997" y="20.404999999999973" as="sourcePoint"/>
                        <mxPoint x="32.40499999999997" y="20.595000000000027" as="targetPoint"/>
                    </mxGeometry>
                </mxCell>
                <mxCell id="137" value="" style="group" parent="1" vertex="1" connectable="0">
                    <mxGeometry x="294.595" y="1945.405" width="72.05999999999995" height="41.25" as="geometry"/>
                </mxCell>
                <mxCell id="138" value="" style="shape=cylinder3;whiteSpace=wrap;html=1;boundedLbl=1;backgroundOutline=1;size=15;rotation=-90;" parent="137" vertex="1">
                    <mxGeometry x="15.404999999999973" y="-15.404999999999973" width="41.25" height="72.06" as="geometry"/>
                </mxCell>
                <mxCell id="139" value="" style="shape=flexArrow;endArrow=classic;html=1;rounded=0;endWidth=12.173913043478262;endSize=5.200000000000001;fillColor=#0050ef;strokeColor=#001DBC;" parent="137" edge="1">
                    <mxGeometry width="50" height="50" relative="1" as="geometry">
                        <mxPoint x="65.40499999999997" y="20.404999999999973" as="sourcePoint"/>
                        <mxPoint x="31.404999999999973" y="20.595000000000027" as="targetPoint"/>
                    </mxGeometry>
                </mxCell>
                <mxCell id="140" value="&lt;font style=&quot;font-size: 10px;&quot;&gt;fd[0][0]&lt;/font&gt;" style="text;html=1;strokeColor=none;fillColor=none;align=center;verticalAlign=middle;whiteSpace=wrap;rounded=0;" parent="1" vertex="1">
                    <mxGeometry x="290" y="1890" width="45" height="20" as="geometry"/>
                </mxCell>
                <mxCell id="141" value="&lt;font style=&quot;font-size: 10px;&quot;&gt;fd[0][1]&lt;/font&gt;" style="text;html=1;strokeColor=#001DBC;fillColor=#0050ef;align=center;verticalAlign=middle;whiteSpace=wrap;rounded=0;fontColor=#ffffff;" parent="1" vertex="1">
                    <mxGeometry x="344" y="1890" width="40" height="20" as="geometry"/>
                </mxCell>
                <mxCell id="142" value="&lt;font style=&quot;font-size: 10px;&quot;&gt;fd[0][0]&lt;/font&gt;" style="text;html=1;strokeColor=#001DBC;fillColor=#0050ef;align=center;verticalAlign=middle;whiteSpace=wrap;rounded=0;fontColor=#ffffff;" parent="1" vertex="1">
                    <mxGeometry x="290" y="2030" width="40" height="20" as="geometry"/>
                </mxCell>
                <mxCell id="143" value="&lt;font style=&quot;font-size: 10px;&quot;&gt;fd[0][1]&lt;/font&gt;" style="text;html=1;strokeColor=none;fillColor=none;align=center;verticalAlign=middle;whiteSpace=wrap;rounded=0;" parent="1" vertex="1">
                    <mxGeometry x="344" y="2030" width="40" height="20" as="geometry"/>
                </mxCell>
                <mxCell id="144" value="&lt;font style=&quot;font-size: 10px;&quot;&gt;fd[1][0]&lt;/font&gt;" style="text;html=1;strokeColor=#2D7600;fillColor=#60a917;align=center;verticalAlign=middle;whiteSpace=wrap;rounded=0;fontColor=#ffffff;" parent="1" vertex="1">
                    <mxGeometry x="390" y="1890" width="50" height="20" as="geometry"/>
                </mxCell>
                <mxCell id="145" value="&lt;font style=&quot;font-size: 10px;&quot;&gt;fd[1][1]&lt;/font&gt;" style="text;html=1;strokeColor=none;fillColor=none;align=center;verticalAlign=middle;whiteSpace=wrap;rounded=0;" parent="1" vertex="1">
                    <mxGeometry x="440" y="1890" width="50" height="20" as="geometry"/>
                </mxCell>
                <mxCell id="146" value="&lt;font style=&quot;font-size: 10px;&quot;&gt;fd[1][0]&lt;/font&gt;" style="text;html=1;strokeColor=none;fillColor=none;align=center;verticalAlign=middle;whiteSpace=wrap;rounded=0;" parent="1" vertex="1">
                    <mxGeometry x="390" y="2030" width="50" height="20" as="geometry"/>
                </mxCell>
                <mxCell id="147" value="&lt;font style=&quot;font-size: 10px;&quot;&gt;fd[1][1]&lt;/font&gt;" style="text;html=1;strokeColor=#2D7600;fillColor=#60a917;align=center;verticalAlign=middle;whiteSpace=wrap;rounded=0;fontColor=#ffffff;" parent="1" vertex="1">
                    <mxGeometry x="440" y="2030" width="50" height="20" as="geometry"/>
                </mxCell>
                <mxCell id="148" value="" style="verticalLabelPosition=bottom;verticalAlign=top;html=1;shape=mxgraph.basic.no_symbol;fillColor=#f8cecc;strokeColor=#b85450;opacity=50;" parent="1" vertex="1">
                    <mxGeometry x="302.05" y="1890" width="20" height="20" as="geometry"/>
                </mxCell>
                <mxCell id="149" value="" style="verticalLabelPosition=bottom;verticalAlign=top;html=1;shape=mxgraph.basic.no_symbol;fillColor=#f8cecc;strokeColor=#b85450;opacity=50;" parent="1" vertex="1">
                    <mxGeometry x="354" y="2030" width="20" height="20" as="geometry"/>
                </mxCell>
                <mxCell id="150" value="" style="verticalLabelPosition=bottom;verticalAlign=top;html=1;shape=mxgraph.basic.no_symbol;fillColor=#f8cecc;strokeColor=#b85450;opacity=50;" parent="1" vertex="1">
                    <mxGeometry x="405" y="2030" width="20" height="20" as="geometry"/>
                </mxCell>
                <mxCell id="151" value="" style="verticalLabelPosition=bottom;verticalAlign=top;html=1;shape=mxgraph.basic.no_symbol;fillColor=#f8cecc;strokeColor=#b85450;opacity=50;" parent="1" vertex="1">
                    <mxGeometry x="455" y="1890" width="20" height="20" as="geometry"/>
                </mxCell>
                <mxCell id="153" value="&lt;span style=&quot;background-color: rgb(255, 255, 255);&quot;&gt;Ouput Module&lt;/span&gt;" style="rounded=0;whiteSpace=wrap;html=1;rotation=0;" parent="1" vertex="1">
                    <mxGeometry x="290" y="1619" width="200" height="60" as="geometry"/>
                </mxCell>
                <mxCell id="177" value="&lt;font style=&quot;font-size: 20px;&quot;&gt;fd[4][2]&lt;br style=&quot;font-size: 20px;&quot;&gt;&lt;/font&gt;" style="text;html=1;align=center;verticalAlign=middle;resizable=0;points=[];autosize=1;strokeColor=none;fillColor=none;fontSize=20;" parent="1" vertex="1">
                    <mxGeometry x="354" y="2140" width="80" height="40" as="geometry"/>
                </mxCell>
                <mxCell id="178" value="" style="group" parent="1" vertex="1" connectable="0">
                    <mxGeometry x="410.00500000000005" y="1721.245" width="72.05999999999995" height="41.25" as="geometry"/>
                </mxCell>
                <mxCell id="179" value="" style="shape=cylinder3;whiteSpace=wrap;html=1;boundedLbl=1;backgroundOutline=1;size=15;rotation=-90;" parent="178" vertex="1">
                    <mxGeometry x="15.404999999999973" y="-15.404999999999973" width="41.25" height="72.06" as="geometry"/>
                </mxCell>
                <mxCell id="180" value="" style="shape=flexArrow;endArrow=classic;html=1;rounded=0;endWidth=12.173913043478262;endSize=5.200000000000001;fillColor=#60a917;strokeColor=#2D7600;" parent="178" edge="1">
                    <mxGeometry width="50" height="50" relative="1" as="geometry">
                        <mxPoint x="66.40499999999997" y="20.404999999999973" as="sourcePoint"/>
                        <mxPoint x="32.40499999999997" y="20.595000000000027" as="targetPoint"/>
                    </mxGeometry>
                </mxCell>
                <mxCell id="181" value="" style="group" parent="1" vertex="1" connectable="0">
                    <mxGeometry x="300.00500000000005" y="1721.245" width="72.05999999999995" height="41.25" as="geometry"/>
                </mxCell>
                <mxCell id="182" value="" style="shape=cylinder3;whiteSpace=wrap;html=1;boundedLbl=1;backgroundOutline=1;size=15;rotation=-90;" parent="181" vertex="1">
                    <mxGeometry x="15.404999999999973" y="-15.404999999999973" width="41.25" height="72.06" as="geometry"/>
                </mxCell>
                <mxCell id="183" value="" style="shape=flexArrow;endArrow=classic;html=1;rounded=0;endWidth=12.173913043478262;endSize=5.200000000000001;fillColor=#0050ef;strokeColor=#001DBC;" parent="181" edge="1">
                    <mxGeometry width="50" height="50" relative="1" as="geometry">
                        <mxPoint x="65.40499999999997" y="20.404999999999973" as="sourcePoint"/>
                        <mxPoint x="31.404999999999973" y="20.595000000000027" as="targetPoint"/>
                    </mxGeometry>
                </mxCell>
                <mxCell id="185" value="&lt;font style=&quot;font-size: 10px;&quot;&gt;fd[2][0]&lt;/font&gt;" style="text;html=1;strokeColor=#001DBC;fillColor=#0050ef;align=center;verticalAlign=middle;whiteSpace=wrap;rounded=0;fontColor=#ffffff;" parent="1" vertex="1">
                    <mxGeometry x="290" y="1659" width="40" height="20" as="geometry"/>
                </mxCell>
                <mxCell id="186" value="&lt;font style=&quot;font-size: 10px;&quot;&gt;fd[2][1]&lt;/font&gt;" style="text;html=1;strokeColor=none;fillColor=none;align=center;verticalAlign=middle;whiteSpace=wrap;rounded=0;" parent="1" vertex="1">
                    <mxGeometry x="344" y="1659" width="40" height="20" as="geometry"/>
                </mxCell>
                <mxCell id="187" value="&lt;font style=&quot;font-size: 10px;&quot;&gt;fd[3][0]&lt;/font&gt;" style="text;html=1;strokeColor=none;fillColor=none;align=center;verticalAlign=middle;whiteSpace=wrap;rounded=0;" parent="1" vertex="1">
                    <mxGeometry x="390" y="1659" width="50" height="20" as="geometry"/>
                </mxCell>
                <mxCell id="188" value="&lt;font style=&quot;font-size: 10px;&quot;&gt;fd[3][1]&lt;/font&gt;" style="text;html=1;strokeColor=#2D7600;fillColor=#60a917;align=center;verticalAlign=middle;whiteSpace=wrap;rounded=0;fontColor=#ffffff;" parent="1" vertex="1">
                    <mxGeometry x="440" y="1659" width="50" height="20" as="geometry"/>
                </mxCell>
                <mxCell id="189" value="" style="verticalLabelPosition=bottom;verticalAlign=top;html=1;shape=mxgraph.basic.no_symbol;fillColor=#f8cecc;strokeColor=#b85450;opacity=50;" parent="1" vertex="1">
                    <mxGeometry x="354" y="1659" width="20" height="20" as="geometry"/>
                </mxCell>
                <mxCell id="190" value="" style="verticalLabelPosition=bottom;verticalAlign=top;html=1;shape=mxgraph.basic.no_symbol;fillColor=#f8cecc;strokeColor=#b85450;opacity=50;" parent="1" vertex="1">
                    <mxGeometry x="405" y="1659" width="20" height="20" as="geometry"/>
                </mxCell>
                <mxCell id="191" value="&lt;font style=&quot;font-size: 10px;&quot;&gt;fd[2][0]&lt;/font&gt;" style="text;html=1;strokeColor=none;fillColor=none;align=center;verticalAlign=middle;whiteSpace=wrap;rounded=0;" parent="1" vertex="1">
                    <mxGeometry x="290" y="1800" width="45" height="20" as="geometry"/>
                </mxCell>
                <mxCell id="192" value="&lt;font style=&quot;font-size: 10px;&quot;&gt;fd[2][1]&lt;/font&gt;" style="text;html=1;strokeColor=#001DBC;fillColor=#0050ef;align=center;verticalAlign=middle;whiteSpace=wrap;rounded=0;fontColor=#ffffff;" parent="1" vertex="1">
                    <mxGeometry x="344" y="1800" width="40" height="20" as="geometry"/>
                </mxCell>
                <mxCell id="193" value="&lt;font style=&quot;font-size: 10px;&quot;&gt;fd[3][0]&lt;/font&gt;" style="text;html=1;strokeColor=#2D7600;fillColor=#60a917;align=center;verticalAlign=middle;whiteSpace=wrap;rounded=0;fontColor=#ffffff;" parent="1" vertex="1">
                    <mxGeometry x="390" y="1800" width="50" height="20" as="geometry"/>
                </mxCell>
                <mxCell id="194" value="&lt;font style=&quot;font-size: 10px;&quot;&gt;fd[3][1]&lt;/font&gt;" style="text;html=1;strokeColor=none;fillColor=none;align=center;verticalAlign=middle;whiteSpace=wrap;rounded=0;" parent="1" vertex="1">
                    <mxGeometry x="440" y="1800" width="50" height="20" as="geometry"/>
                </mxCell>
                <mxCell id="195" value="" style="verticalLabelPosition=bottom;verticalAlign=top;html=1;shape=mxgraph.basic.no_symbol;fillColor=#f8cecc;strokeColor=#b85450;opacity=50;" parent="1" vertex="1">
                    <mxGeometry x="302.05" y="1800" width="20" height="20" as="geometry"/>
                </mxCell>
                <mxCell id="196" value="" style="verticalLabelPosition=bottom;verticalAlign=top;html=1;shape=mxgraph.basic.no_symbol;fillColor=#f8cecc;strokeColor=#b85450;opacity=50;" parent="1" vertex="1">
                    <mxGeometry x="455" y="1800" width="20" height="20" as="geometry"/>
                </mxCell>
                <mxCell id="198" style="edgeStyle=orthogonalEdgeStyle;rounded=0;html=1;exitX=0.951;exitY=-0.002;exitDx=0;exitDy=0;entryX=0.145;entryY=1;entryDx=0;entryDy=-4.35;entryPerimeter=0;startArrow=none;startFill=0;endArrow=classic;endFill=1;exitPerimeter=0;fillColor=#60a917;strokeColor=#2D7600;strokeWidth=2;" parent="1" edge="1">
                    <mxGeometry relative="1" as="geometry">
                        <Array as="points">
                            <mxPoint x="485.02000000000004" y="1698.88375"/>
                            <mxPoint x="495.02000000000004" y="1698.88375"/>
                            <mxPoint x="495.02000000000004" y="1727.88375"/>
                        </Array>
                        <mxPoint x="485.21999999999997" y="1679.0037499999999" as="sourcePoint"/>
                        <mxPoint x="477.3250000000001" y="1728.21" as="targetPoint"/>
                    </mxGeometry>
                </mxCell>
                <mxCell id="199" style="edgeStyle=orthogonalEdgeStyle;rounded=0;html=1;exitX=0.855;exitY=0;exitDx=0;exitDy=4.35;exitPerimeter=0;startArrow=none;startFill=0;endArrow=classic;endFill=1;fillColor=#60a917;strokeColor=#2D7600;strokeWidth=2;" parent="1" edge="1">
                    <mxGeometry relative="1" as="geometry">
                        <Array as="points">
                            <mxPoint x="406.06" y="1758.9962499999997"/>
                        </Array>
                        <mxPoint x="414.00499999999994" y="1758.6100000000001" as="sourcePoint"/>
                        <mxPoint x="406.06" y="1799.9962499999997" as="targetPoint"/>
                    </mxGeometry>
                </mxCell>
                <mxCell id="200" style="edgeStyle=orthogonalEdgeStyle;rounded=0;html=1;exitX=0.855;exitY=1;exitDx=0;exitDy=-4.35;exitPerimeter=0;startArrow=classic;startFill=1;endArrow=none;endFill=0;fillColor=#0050ef;strokeColor=#001DBC;strokeWidth=2;" parent="1" edge="1">
                    <mxGeometry relative="1" as="geometry">
                        <mxPoint x="382.317027027027" y="1799.9954054054058" as="targetPoint"/>
                        <Array as="points">
                            <mxPoint x="382.29" y="1758.9954054054058"/>
                        </Array>
                        <mxPoint x="364.5950000000001" y="1758.6091554054062" as="sourcePoint"/>
                    </mxGeometry>
                </mxCell>
                <mxCell id="201" style="edgeStyle=orthogonalEdgeStyle;rounded=0;html=1;exitX=0.145;exitY=0;exitDx=0;exitDy=4.35;exitPerimeter=0;entryX=0.051;entryY=0.005;entryDx=0;entryDy=0;entryPerimeter=0;startArrow=none;startFill=0;endArrow=classic;endFill=1;fillColor=#0050ef;strokeColor=#001DBC;strokeWidth=2;" parent="1" edge="1">
                    <mxGeometry relative="1" as="geometry">
                        <Array as="points">
                            <mxPoint x="294.59" y="1728.30375"/>
                            <mxPoint x="294.59" y="1699.30375"/>
                            <mxPoint x="304.59" y="1699.30375"/>
                        </Array>
                        <mxPoint x="303.5349999999999" y="1728.63" as="sourcePoint"/>
                        <mxPoint x="304.7899999999999" y="1679.0037499999999" as="targetPoint"/>
                    </mxGeometry>
                </mxCell>
                <mxCell id="204" value="Input Module (Parent)&lt;br&gt;mian()" style="whiteSpace=wrap;html=1;fontFamily=Times New Roman;fontStyle=1" vertex="1" parent="1">
                    <mxGeometry x="154" y="2381" width="200" height="119" as="geometry"/>
                </mxCell>
                <mxCell id="206" value="Scheduling Module (Child 0)" style="rounded=0;whiteSpace=wrap;html=1;fontFamily=Times New Roman;fontStyle=1" vertex="1" parent="1">
                    <mxGeometry x="154" y="2540" width="200" height="60" as="geometry"/>
                </mxCell>
                <mxCell id="230" value="&lt;span style=&quot;background-color: rgb(255, 255, 255);&quot;&gt;Ouput Module (Child 1)&lt;/span&gt;" style="rounded=0;whiteSpace=wrap;html=1;rotation=0;fontFamily=Times New Roman;fontStyle=1" vertex="1" parent="1">
                    <mxGeometry x="154" y="2280" width="200" height="60" as="geometry"/>
                </mxCell>
                <mxCell id="217" value="" style="shape=flexArrow;endArrow=classic;html=1;rounded=0;endWidth=12.173913043478262;endSize=5.200000000000001;fillColor=#0050ef;strokeColor=#001DBC;exitX=0.25;exitY=1;exitDx=0;exitDy=0;entryX=0.25;entryY=0;entryDx=0;entryDy=0;fontFamily=Times New Roman;fontStyle=1" edge="1" parent="1" source="204" target="206">
                    <mxGeometry width="50" height="50" relative="1" as="geometry">
                        <mxPoint x="208.375" y="2500.0049999999997" as="sourcePoint"/>
                        <mxPoint x="208.375" y="2534.0049999999997" as="targetPoint"/>
                    </mxGeometry>
                </mxCell>
                <mxCell id="214" value="" style="shape=flexArrow;endArrow=classic;html=1;rounded=0;endWidth=12.173913043478262;endSize=5.200000000000001;fillColor=#60a917;strokeColor=#2D7600;entryX=0.75;entryY=1;entryDx=0;entryDy=0;exitX=0.75;exitY=0;exitDx=0;exitDy=0;fontFamily=Times New Roman;fontStyle=1" edge="1" parent="1" source="206" target="204">
                    <mxGeometry width="50" height="50" relative="1" as="geometry">
                        <mxPoint x="307.37499999999994" y="2534.0049999999997" as="sourcePoint"/>
                        <mxPoint x="307.37499999999994" y="2500.0049999999997" as="targetPoint"/>
                    </mxGeometry>
                </mxCell>
                <mxCell id="236" value="" style="shape=flexArrow;endArrow=classic;html=1;rounded=0;endWidth=12.173913043478262;endSize=5.200000000000001;fillColor=#0050ef;strokeColor=#001DBC;exitX=0.25;exitY=0;exitDx=0;exitDy=0;entryX=0.25;entryY=1;entryDx=0;entryDy=0;fontFamily=Times New Roman;fontStyle=1" edge="1" parent="1" source="204" target="230">
                    <mxGeometry width="50" height="50" relative="1" as="geometry">
                        <mxPoint x="203.375" y="2373.995" as="sourcePoint"/>
                        <mxPoint x="203" y="2340" as="targetPoint"/>
                    </mxGeometry>
                </mxCell>
                <mxCell id="256" value="" style="shape=flexArrow;endArrow=classic;html=1;rounded=0;endWidth=12.173913043478262;endSize=5.200000000000001;fillColor=#60a917;strokeColor=#2D7600;entryX=0.75;entryY=0;entryDx=0;entryDy=0;exitX=0.75;exitY=1;exitDx=0;exitDy=0;fontFamily=Times New Roman;fontStyle=1" edge="1" parent="1" source="230" target="204">
                    <mxGeometry width="50" height="50" relative="1" as="geometry">
                        <mxPoint x="308" y="2330" as="sourcePoint"/>
                        <mxPoint x="308.0000000000001" y="2370" as="targetPoint"/>
                    </mxGeometry>
                </mxCell>
                <mxCell id="257" value="Input Module (Parent)&lt;br&gt;mian()" style="whiteSpace=wrap;html=1;fontFamily=Times New Roman;fontStyle=1" vertex="1" parent="1">
                    <mxGeometry x="160" y="2640" width="200" height="60" as="geometry"/>
                </mxCell>
                <mxCell id="258" value="Scheduling Module (Child 0)" style="rounded=0;whiteSpace=wrap;html=1;fontFamily=Times New Roman;fontStyle=1" vertex="1" parent="1">
                    <mxGeometry x="480" y="2640" width="200" height="60" as="geometry"/>
                </mxCell>
                <mxCell id="261" value="" style="endArrow=classic;html=1;fontFamily=Times New Roman;exitX=0.5;exitY=1;exitDx=0;exitDy=0;" edge="1" parent="1" source="257">
                    <mxGeometry width="50" height="50" relative="1" as="geometry">
                        <mxPoint x="400" y="2850" as="sourcePoint"/>
                        <mxPoint x="260" y="3260" as="targetPoint"/>
                    </mxGeometry>
                </mxCell>
                <mxCell id="262" value="" style="endArrow=classic;html=1;fontFamily=Times New Roman;exitX=0.5;exitY=1;exitDx=0;exitDy=0;entryX=0.5;entryY=0;entryDx=0;entryDy=0;" edge="1" parent="1" source="258" target="277">
                    <mxGeometry width="50" height="50" relative="1" as="geometry">
                        <mxPoint x="490" y="2850" as="sourcePoint"/>
                        <mxPoint x="580" y="2960" as="targetPoint"/>
                    </mxGeometry>
                </mxCell>
                <mxCell id="263" value="" style="endArrow=classic;html=1;fontFamily=Times New Roman;" edge="1" parent="1">
                    <mxGeometry width="50" height="50" relative="1" as="geometry">
                        <mxPoint x="260" y="2720" as="sourcePoint"/>
                        <mxPoint x="580" y="2760" as="targetPoint"/>
                    </mxGeometry>
                </mxCell>
                <mxCell id="264" value="'H' (hello)" style="text;html=1;align=center;verticalAlign=middle;resizable=0;points=[];autosize=1;strokeColor=none;fillColor=none;fontFamily=Times New Roman;" vertex="1" parent="1">
                    <mxGeometry x="277.5" y="2720" width="70" height="30" as="geometry"/>
                </mxCell>
                <mxCell id="265" value="" style="endArrow=classic;html=1;fontFamily=Times New Roman;" edge="1" parent="1">
                    <mxGeometry width="50" height="50" relative="1" as="geometry">
                        <mxPoint x="580" y="2760" as="sourcePoint"/>
                        <mxPoint x="260" y="2800" as="targetPoint"/>
                    </mxGeometry>
                </mxCell>
                <mxCell id="267" value="'A' (acknowledge)" style="text;html=1;align=center;verticalAlign=middle;resizable=0;points=[];autosize=1;strokeColor=none;fillColor=none;fontFamily=Times New Roman;" vertex="1" parent="1">
                    <mxGeometry x="460" y="2770" width="110" height="30" as="geometry"/>
                </mxCell>
                <mxCell id="269" value="" style="endArrow=classic;html=1;fontFamily=Times New Roman;" edge="1" parent="1">
                    <mxGeometry width="50" height="50" relative="1" as="geometry">
                        <mxPoint x="260" y="2800" as="sourcePoint"/>
                        <mxPoint x="580" y="2830" as="targetPoint"/>
                    </mxGeometry>
                </mxCell>
                <mxCell id="270" value="'S[T][NN]': schedule initialzation" style="text;html=1;align=center;verticalAlign=middle;resizable=0;points=[];autosize=1;strokeColor=none;fillColor=none;fontFamily=Times New Roman;" vertex="1" parent="1">
                    <mxGeometry x="275" y="2810" width="180" height="30" as="geometry"/>
                </mxCell>
                <mxCell id="271" value="[T]: schedule type, &lt;br&gt;'F': FCFS, 'P': Priority&lt;br&gt;[NN]: user number" style="text;html=1;align=left;verticalAlign=middle;resizable=0;points=[];autosize=1;strokeColor=none;fillColor=none;fontFamily=Times New Roman;" vertex="1" parent="1">
                    <mxGeometry x="120" y="2795" width="130" height="60" as="geometry"/>
                </mxCell>
                <mxCell id="272" value="" style="endArrow=classic;html=1;fontFamily=Times New Roman;" edge="1" parent="1">
                    <mxGeometry width="50" height="50" relative="1" as="geometry">
                        <mxPoint x="580" y="2830" as="sourcePoint"/>
                        <mxPoint x="260" y="2880" as="targetPoint"/>
                    </mxGeometry>
                </mxCell>
                <mxCell id="273" value="'S' (acknowledge)" style="text;html=1;align=center;verticalAlign=middle;resizable=0;points=[];autosize=1;strokeColor=none;fillColor=none;fontFamily=Times New Roman;" vertex="1" parent="1">
                    <mxGeometry x="454" y="2840" width="110" height="30" as="geometry"/>
                </mxCell>
                <mxCell id="274" value="" style="endArrow=classic;html=1;fontFamily=Times New Roman;" edge="1" parent="1">
                    <mxGeometry width="50" height="50" relative="1" as="geometry">
                        <mxPoint x="260" y="2880" as="sourcePoint"/>
                        <mxPoint x="580" y="2920" as="targetPoint"/>
                    </mxGeometry>
                </mxCell>
                <mxCell id="276" value="'A[AppStrings...]': encoded appointment info" style="text;html=1;align=center;verticalAlign=middle;resizable=0;points=[];autosize=1;strokeColor=none;fillColor=none;fontFamily=Times New Roman;" vertex="1" parent="1">
                    <mxGeometry x="255" y="2900" width="240" height="30" as="geometry"/>
                </mxCell>
                <mxCell id="277" value="Scheduling Algorithm" style="rounded=0;whiteSpace=wrap;html=1;fontFamily=Times New Roman;" vertex="1" parent="1">
                    <mxGeometry x="520" y="2960" width="120" height="40" as="geometry"/>
                </mxCell>
                <mxCell id="278" value="" style="endArrow=classic;html=1;fontFamily=Times New Roman;exitX=0.5;exitY=1;exitDx=0;exitDy=0;" edge="1" parent="1" source="277">
                    <mxGeometry width="50" height="50" relative="1" as="geometry">
                        <mxPoint x="400" y="2980" as="sourcePoint"/>
                        <mxPoint x="580" y="3190" as="targetPoint"/>
                    </mxGeometry>
                </mxCell>
                <mxCell id="279" value="Get rejected &lt;br&gt;appointments' ID&lt;br&gt;list &amp;amp; size" style="text;html=1;align=left;verticalAlign=middle;resizable=0;points=[];autosize=1;strokeColor=none;fillColor=none;fontFamily=Times New Roman;" vertex="1" parent="1">
                    <mxGeometry x="491.99999999999994" y="2994" width="110" height="60" as="geometry"/>
                </mxCell>
                <mxCell id="280" value="" style="endArrow=classic;html=1;fontFamily=Times New Roman;" edge="1" parent="1">
                    <mxGeometry width="50" height="50" relative="1" as="geometry">
                        <mxPoint x="580" y="3050" as="sourcePoint"/>
                        <mxPoint x="260" y="3090" as="targetPoint"/>
                    </mxGeometry>
                </mxCell>
                <mxCell id="281" value="'A[NNNN][AppIDs...]'" style="text;html=1;align=center;verticalAlign=middle;resizable=0;points=[];autosize=1;strokeColor=none;fillColor=none;fontFamily=Times New Roman;" vertex="1" parent="1">
                    <mxGeometry x="384" y="3070" width="130" height="30" as="geometry"/>
                </mxCell>
                <mxCell id="282" value="Get rejected &lt;br&gt;appointments' ID&lt;br&gt;list &amp;amp; size" style="text;html=1;align=left;verticalAlign=middle;resizable=0;points=[];autosize=1;strokeColor=none;fillColor=none;fontFamily=Times New Roman;" vertex="1" parent="1">
                    <mxGeometry x="590" y="3045" width="110" height="60" as="geometry"/>
                </mxCell>
            </root>
        </mxGraphModel>
    </diagram>
</mxfile>